<svg preserveAspectRatio="none" width="100%" height="100%" overflow="visible" style="display: block;" viewBox="0 0 46 46" fill="none" xmlns="http://www.w3.org/2000/svg">
<g id="Frame 2131329826">
<rect y="2" width="44" height="44" rx="22" fill="var(--fill-0, white)"/>
<path id="Vector" d="M27.9992 21.6027V20.9992C27.9992 17.6859 25.3133 15 22 15C18.6867 15 16.0008 17.6859 16.0008 20.9992V21.6027C16.0008 22.3269 15.7864 23.0348 15.3847 23.6374L14.4003 25.114C13.5012 26.4627 14.1876 28.2959 15.7514 28.7224C19.8424 29.8382 24.1576 29.8382 28.2486 28.7224C29.8124 28.2959 30.4988 26.4627 29.5997 25.114L28.6153 23.6374C28.2136 23.0348 27.9992 22.3269 27.9992 21.6027Z" stroke="var(--stroke-0, #151521)" stroke-width="1.5"/>
<path id="Vector_2" d="M18.1445 29.5695C18.7059 31.0674 20.2207 32.1406 22.0012 32.1406C23.7817 32.1406 25.2964 31.0674 25.8578 29.5695" stroke="var(--stroke-0, #151521)" stroke-width="1.5" stroke-linecap="round"/>
<g id="Frame 2131329827">
<rect x="31" y="1" width="14" height="14" rx="7" fill="var(--fill-0, #50C565)"/>
<rect x="31" y="1" width="14" height="14" rx="7" stroke="var(--stroke-0, white)" stroke-width="2"/>
</g>
</g>
</svg>
