<svg preserveAspectRatio="none" width="100%" height="100%" overflow="visible" style="display: block;" viewBox="0 0 20 20" fill="none" xmlns="http://www.w3.org/2000/svg">
<g id="fi-rr-credit-card">
<path id="Vector" d="M4.58333 14.1667C5.27369 14.1667 5.83333 13.607 5.83333 12.9167C5.83333 12.2263 5.27369 11.6667 4.58333 11.6667C3.89298 11.6667 3.33333 12.2263 3.33333 12.9167C3.33333 13.607 3.89298 14.1667 4.58333 14.1667Z" fill="var(--fill-0, #3A7FFF)"/>
<path id="Vector_2" d="M15.8333 2.5H4.16667C1.83333 2.5 0 4.33333 0 6.66667V13.3333C0 15.6667 1.83333 17.5 4.16667 17.5H15.8333C18.1667 17.5 20 15.6667 20 13.3333V6.66667C20 4.33333 18.1667 2.5 15.8333 2.5ZM4.16667 4.16667H15.8333C17.25 4.16667 18.3333 5.25 18.3333 6.66667H1.66667C1.66667 5.25 2.75 4.16667 4.16667 4.16667ZM15.8333 15.8333H4.16667C2.75 15.8333 1.66667 14.75 1.66667 13.3333V8.33333H18.3333V13.3333C18.3333 14.75 17.25 15.8333 15.8333 15.8333Z" fill="var(--fill-0, #3A7FFF)"/>
</g>
</svg>
