<svg preserveAspectRatio="none" width="100%" height="100%" overflow="visible" style="display: block;" viewBox="0 0 28 28" fill="none" xmlns="http://www.w3.org/2000/svg">
<g id="fi-rr-star" clip-path="url(#clip0_0_15)">
<path id="Vector" d="M27.8064 10.2597C27.5678 9.50008 27.091 8.83742 26.4466 8.36973C25.8023 7.90204 25.0245 7.65414 24.2283 7.66269H19.1311L17.5829 2.83736C17.3395 2.07781 16.8611 1.41521 16.2167 0.945104C15.5724 0.474998 14.7954 0.22168 13.9978 0.22168C13.2002 0.22168 12.4232 0.474998 11.7788 0.945104C11.1345 1.41521 10.6561 2.07781 10.4126 2.83736L8.86445 7.66269H3.76728C2.97365 7.66382 2.20067 7.91573 1.55876 8.38242C0.916846 8.84911 0.438831 9.50672 0.192992 10.2613C-0.0528473 11.0159 -0.0539354 11.8289 0.189883 12.5841C0.433701 13.3394 0.909955 13.9983 1.55062 14.4667L5.69928 17.5L4.12195 22.3849C3.86705 23.1425 3.86382 23.9622 4.11274 24.7218C4.36167 25.4814 4.84942 26.1402 5.50328 26.6C6.14594 27.0746 6.92474 27.3288 7.72363 27.3248C8.52252 27.3209 9.29873 27.0588 9.93662 26.5779L13.9978 23.5889L18.0601 26.5744C18.7016 27.0462 19.4762 27.3025 20.2725 27.3064C21.0689 27.3103 21.8459 27.0615 22.492 26.596C23.1381 26.1304 23.6199 25.4719 23.8681 24.7152C24.1164 23.9586 24.1183 23.1427 23.8736 22.3849L22.2963 17.5L26.4496 14.4667C27.0976 14.0042 27.5794 13.3453 27.8238 12.5876C28.0682 11.8299 28.0621 11.0137 27.8064 10.2597ZM25.0729 12.5825L20.2383 16.1164C20.0397 16.2612 19.892 16.4651 19.8161 16.6989C19.7403 16.9327 19.7402 17.1845 19.8159 17.4184L21.6534 23.1C21.7464 23.3882 21.7456 23.6984 21.6512 23.9861C21.5567 24.2738 21.3735 24.5242 21.1278 24.7011C20.8821 24.8781 20.5866 24.9726 20.2838 24.9711C19.981 24.9695 19.6865 24.872 19.4426 24.6925L14.6884 21.1925C14.4882 21.0454 14.2462 20.9661 13.9978 20.9661C13.7493 20.9661 13.5074 21.0454 13.3071 21.1925L8.55295 24.6925C8.30921 24.8744 8.01388 24.974 7.70976 24.9767C7.40564 24.9795 7.10855 24.8853 6.86155 24.7079C6.61455 24.5304 6.43049 24.2789 6.33605 23.9898C6.2416 23.7007 6.24168 23.3891 6.33628 23.1L8.17962 17.4184C8.25535 17.1845 8.2553 16.9327 8.17946 16.6989C8.10361 16.4651 7.95586 16.2612 7.75728 16.1164L2.92262 12.5825C2.67914 12.4043 2.49822 12.1536 2.40571 11.8664C2.31321 11.5791 2.31384 11.27 2.40752 10.9831C2.50119 10.6963 2.68313 10.4464 2.92733 10.2691C3.17154 10.0918 3.46552 9.99624 3.76728 9.99603H9.71728C9.96428 9.99602 10.2049 9.91762 10.4045 9.77211C10.6041 9.62661 10.7524 9.42151 10.8279 9.18636L12.6363 3.55019C12.7291 3.26178 12.911 3.01025 13.1559 2.83182C13.4008 2.65339 13.696 2.55725 13.999 2.55725C14.3019 2.55725 14.5971 2.65339 14.842 2.83182C15.0869 3.01025 15.2688 3.26178 15.3616 3.55019L17.1699 9.18636C17.2455 9.42151 17.3938 9.62661 17.5934 9.77211C17.793 9.91762 18.0336 9.99602 18.2806 9.99603H24.2306C24.5324 9.99624 24.8264 10.0918 25.0706 10.2691C25.3148 10.4464 25.4967 10.6963 25.5904 10.9831C25.6841 11.27 25.6847 11.5791 25.5922 11.8664C25.4997 12.1536 25.3188 12.4043 25.0753 12.5825H25.0729Z" fill="var(--fill-0, #E85ADA)" fill-opacity="0.2"/>
</g>
<defs>
<clipPath id="clip0_0_15">
<rect width="28" height="28" fill="white"/>
</clipPath>
</defs>
</svg>
