<svg preserveAspectRatio="none" width="100%" height="100%" overflow="visible" style="display: block;" viewBox="0 0 24 24" fill="none" xmlns="http://www.w3.org/2000/svg">
<g id="fi-rr-angle-small-left">
<path id="Vector" d="M10.6 12.707C10.4125 12.5195 10.3072 12.2652 10.3072 12C10.3072 11.7348 10.4125 11.4805 10.6 11.293L15.185 6.707C15.3672 6.5184 15.468 6.2658 15.4657 6.0036C15.4634 5.7414 15.3582 5.49059 15.1728 5.30518C14.9874 5.11977 14.7366 5.0146 14.4744 5.01233C14.2122 5.01005 13.9596 5.11084 13.771 5.293L9.189 9.879C8.62659 10.4416 8.31064 11.2045 8.31064 12C8.31064 12.7955 8.62659 13.5584 9.189 14.121L13.775 18.707C13.9636 18.8892 14.2162 18.99 14.4784 18.9877C14.7406 18.9854 14.9914 18.8802 15.1768 18.6948C15.3622 18.5094 15.4674 18.2586 15.4697 17.9964C15.472 17.7342 15.3712 17.4816 15.189 17.293L10.6 12.707Z" fill="var(--fill-0, #0A0A0A)"/>
</g>
</svg>
