<svg preserveAspectRatio="none" width="100%" height="100%" overflow="visible" style="display: block;" viewBox="0 0 20 20" fill="none" xmlns="http://www.w3.org/2000/svg">
<g id="fi-rr-time-fast" clip-path="url(#clip0_0_35)">
<path id="Vector" d="M7.5 20H0.833333C0.61232 20 0.400358 19.9122 0.244078 19.7559C0.0877974 19.5996 0 19.3877 0 19.1667C0 18.9457 0.0877974 18.7337 0.244078 18.5774C0.400358 18.4211 0.61232 18.3333 0.833333 18.3333H7.5C7.72101 18.3333 7.93297 18.4211 8.08926 18.5774C8.24554 18.7337 8.33333 18.9457 8.33333 19.1667C8.33333 19.3877 8.24554 19.5996 8.08926 19.7559C7.93297 19.9122 7.72101 20 7.5 20Z" fill="var(--fill-0, #F36437)"/>
<path id="Vector_2" d="M5.83333 16.6667H0.833333C0.61232 16.6667 0.400358 16.5789 0.244078 16.4226C0.0877974 16.2663 0 16.0543 0 15.8333C0 15.6123 0.0877974 15.4004 0.244078 15.2441C0.400358 15.0878 0.61232 15 0.833333 15H5.83333C6.05435 15 6.26631 15.0878 6.42259 15.2441C6.57887 15.4004 6.66667 15.6123 6.66667 15.8333C6.66667 16.0543 6.57887 16.2663 6.42259 16.4226C6.26631 16.5789 6.05435 16.6667 5.83333 16.6667Z" fill="var(--fill-0, #F36437)"/>
<path id="Vector_3" d="M4.16667 13.3333H0.833333C0.61232 13.3333 0.400358 13.2455 0.244078 13.0893C0.0877974 12.933 0 12.721 0 12.5C0 12.279 0.0877974 12.067 0.244078 11.9107C0.400358 11.7545 0.61232 11.6667 0.833333 11.6667H4.16667C4.38768 11.6667 4.59964 11.7545 4.75592 11.9107C4.9122 12.067 5 12.279 5 12.5C5 12.721 4.9122 12.933 4.75592 13.0893C4.59964 13.2455 4.38768 13.3333 4.16667 13.3333Z" fill="var(--fill-0, #F36437)"/>
<path id="Vector_4" d="M10.8333 19.9625C10.6123 19.9723 10.3965 19.894 10.2332 19.7446C10.07 19.5953 9.97275 19.3873 9.96292 19.1663C9.95308 18.9452 10.0314 18.7294 10.1808 18.5661C10.3301 18.4029 10.5382 18.3057 10.7592 18.2958C12.3362 18.1515 13.8395 17.5609 15.0929 16.593C16.3464 15.6251 17.2981 14.3201 17.8366 12.8309C18.3751 11.3416 18.4781 9.72971 18.1335 8.18401C17.789 6.63831 17.0111 5.2228 15.891 4.10325C14.771 2.98371 13.3551 2.2065 11.8093 1.86264C10.2634 1.51879 8.65158 1.62253 7.16256 2.16172C5.67354 2.70091 4.36898 3.65322 3.40169 4.90711C2.43439 6.161 1.84441 7.66455 1.70083 9.24167C1.69098 9.35066 1.65976 9.45665 1.60895 9.55359C1.55814 9.65052 1.48874 9.73649 1.4047 9.8066C1.32066 9.87671 1.22364 9.92958 1.11917 9.96219C1.0147 9.9948 0.90483 10.0065 0.795833 9.99667C0.686836 9.98682 0.580846 9.9556 0.483915 9.90479C0.386984 9.85398 0.30101 9.78457 0.230902 9.70053C0.160793 9.6165 0.107924 9.51947 0.0753121 9.415C0.0427001 9.31053 0.0309842 9.20066 0.0408333 9.09167C0.273241 6.52776 1.4855 4.15225 3.42527 2.45964C5.36504 0.767028 7.88287 -0.112278 10.4546 0.00476218C13.0264 0.121802 15.4539 1.22617 17.2319 3.08798C19.01 4.94978 20.0014 7.42558 20 10C20.0128 12.4986 19.0845 14.9105 17.3999 16.7558C15.7153 18.6012 13.3978 19.7448 10.9083 19.9592C10.8833 19.9617 10.8575 19.9625 10.8333 19.9625Z" fill="var(--fill-0, #F36437)"/>
<path id="Vector_5" d="M10 5C9.77899 5 9.56703 5.0878 9.41074 5.24408C9.25446 5.40036 9.16667 5.61232 9.16667 5.83333V10C9.16671 10.221 9.25454 10.4329 9.41083 10.5892L11.9108 13.0892C12.068 13.241 12.2785 13.325 12.497 13.3231C12.7155 13.3212 12.9245 13.2335 13.079 13.079C13.2335 12.9245 13.3212 12.7155 13.3231 12.497C13.325 12.2785 13.241 12.068 13.0892 11.9108L10.8333 9.655V5.83333C10.8333 5.61232 10.7455 5.40036 10.5893 5.24408C10.433 5.0878 10.221 5 10 5Z" fill="var(--fill-0, #F36437)"/>
</g>
<defs>
<clipPath id="clip0_0_35">
<rect width="20" height="20" fill="white"/>
</clipPath>
</defs>
</svg>
