<svg preserveAspectRatio="none" width="100%" height="100%" overflow="visible" style="display: block;" viewBox="0 0 30 30" fill="none" xmlns="http://www.w3.org/2000/svg">
<g id="vuesax/bold/scan">
<path id="Vector" d="M3.4625 12.5C2.925 12.5 2.5 12.075 2.5 11.5375V8.65C2.5 5.2625 5.2625 2.5 8.65 2.5H11.5375C12.075 2.5 12.5 2.925 12.5 3.4625C12.5 4 12.075 4.425 11.5375 4.425H8.65C6.3125 4.425 4.425 6.325 4.425 8.65V11.5375C4.425 12.075 3.9875 12.5 3.4625 12.5Z" fill="var(--fill-0, #3A7FFF)"/>
<path id="Vector_2" d="M26.5375 12.5C26.0125 12.5 25.575 12.075 25.575 11.5375V8.65C25.575 6.3125 23.675 4.425 21.35 4.425H18.4625C17.925 4.425 17.5 3.9875 17.5 3.4625C17.5 2.9375 17.925 2.5 18.4625 2.5H21.35C24.7375 2.5 27.5 5.2625 27.5 8.65V11.5375C27.5 12.075 27.075 12.5 26.5375 12.5Z" fill="var(--fill-0, #3A7FFF)"/>
<path id="Vector_3" d="M21.35 27.5H19.6125C19.0875 27.5 18.65 27.075 18.65 26.5375C18.65 26.0125 19.075 25.575 19.6125 25.575H21.35C23.6875 25.575 25.575 23.675 25.575 21.35V19.625C25.575 19.1 26 18.6625 26.5375 18.6625C27.0625 18.6625 27.5 19.0875 27.5 19.625V21.35C27.5 24.7375 24.7375 27.5 21.35 27.5Z" fill="var(--fill-0, #3A7FFF)"/>
<path id="Vector_4" d="M11.5375 27.5H8.65C5.2625 27.5 2.5 24.7375 2.5 21.35V18.4625C2.5 17.925 2.925 17.5 3.4625 17.5C4 17.5 4.425 17.925 4.425 18.4625V21.35C4.425 23.6875 6.325 25.575 8.65 25.575H11.5375C12.0625 25.575 12.5 26 12.5 26.5375C12.5 27.075 12.075 27.5 11.5375 27.5Z" fill="var(--fill-0, #3A7FFF)"/>
<path id="Vector_5" d="M23.075 14.0375H21.375H8.625H6.925C6.3875 14.0375 5.9625 14.475 5.9625 15C5.9625 15.525 6.3875 15.9625 6.925 15.9625H8.625H21.375H23.075C23.6125 15.9625 24.0375 15.525 24.0375 15C24.0375 14.475 23.6125 14.0375 23.075 14.0375Z" fill="var(--fill-0, #3A7FFF)"/>
<path id="Vector_6" d="M8.625 17.425V17.8375C8.625 19.9125 10.3 21.5875 12.375 21.5875H17.625C19.7 21.5875 21.375 19.9125 21.375 17.8375V17.425C21.375 17.275 21.2625 17.1625 21.1125 17.1625H8.8875C8.7375 17.1625 8.625 17.275 8.625 17.425Z" fill="var(--fill-0, #3A7FFF)"/>
<path id="Vector_7" d="M8.625 12.575V12.1625C8.625 10.0875 10.3 8.4125 12.375 8.4125H17.625C19.7 8.4125 21.375 10.0875 21.375 12.1625V12.575C21.375 12.725 21.2625 12.8375 21.1125 12.8375H8.8875C8.7375 12.8375 8.625 12.725 8.625 12.575Z" fill="var(--fill-0, #3A7FFF)"/>
<g id="Vector_8" opacity="0">
</g>
</g>
</svg>
