<svg preserveAspectRatio="none" width="100%" height="100%" overflow="visible" style="display: block;" viewBox="0 0 28 28" fill="none" xmlns="http://www.w3.org/2000/svg">
<g id="fi-rr-star" clip-path="url(#clip0_0_47)">
<path id="Vector" d="M27.8064 10.2597C27.5678 9.50008 27.091 8.83742 26.4466 8.36973C25.8023 7.90204 25.0245 7.65414 24.2283 7.66269H19.1311L17.5829 2.83736C17.3395 2.07781 16.8611 1.41521 16.2167 0.945104C15.5724 0.474998 14.7954 0.22168 13.9978 0.22168C13.2002 0.22168 12.4232 0.474998 11.7788 0.945104C11.1345 1.41521 10.6561 2.07781 10.4126 2.83736L8.86445 7.66269H3.76728C2.97365 7.66382 2.20067 7.91573 1.55876 8.38242C0.916846 8.84911 0.438831 9.50672 0.192992 10.2613C-0.0528473 11.0159 -0.0539354 11.8289 0.189883 12.5841C0.433701 13.3394 0.909955 13.9983 1.55062 14.4667L5.69928 17.5L4.12195 22.3849C3.86705 23.1425 3.86382 23.9622 4.11274 24.7218C4.36167 25.4814 4.84942 26.1402 5.50328 26.6C6.14594 27.0746 6.92474 27.3288 7.72363 27.3248C8.52252 27.3209 9.29873 27.0588 9.93662 26.5779L13.9978 23.5889L18.0601 26.5744C18.7016 27.0462 19.4762 27.3025 20.2725 27.3064C21.0689 27.3103 21.8459 27.0615 22.492 26.596C23.1381 26.1304 23.6199 25.4719 23.8681 24.7152C24.1164 23.9586 24.1183 23.1427 23.8736 22.3849L22.2963 17.5L26.4496 14.4667C27.0976 14.0042 27.5794 13.3453 27.8238 12.5876C28.0682 11.8299 28.0621 11.0137 27.8064 10.2597Z" fill="white"/>
</g>
<defs>
<clipPath id="clip0_0_47">
<rect width="28" height="28" fill="white"/>
</clipPath>
</defs>
</svg>
