<svg xmlns="http://www.w3.org/2000/svg" viewBox="0 0 44 44" width="44" height="44">
  <rect width="44" height="44" fill="#f3e2d7"/>
  <g fill="#8E8E96">
    <!-- длинные волосы: обрамление шире головы, спускается к плечам -->
    <path d="M22 6.5c-6.8 0-11 4.4-11 11 0 5.7 1.4 10.4 3.2 14h2.5c-1.3-3.6-2-7.3-2-11.4 0-5.2 3.1-7.8 7.3-7.8s7.3 2.6 7.3 7.8c0 4.1-.7 7.8-2 11.4h2.5c1.8-3.6 3.2-8.3 3.2-14 0-6.6-4.2-11-11-11z"/>
    <!-- голова -->
    <circle cx="22" cy="16.5" r="6.4"/>
    <!-- плечи (уже мужских) -->
    <path d="M22 27c-6.2 0-11 4.1-11 9.7V44h22v-7.3c0-5.6-4.8-9.7-11-9.7z"/>
  </g>
</svg>
