<svg preserveAspectRatio="none" width="100%" height="100%" overflow="visible" style="display: block;" viewBox="0 0 20 20" fill="none" xmlns="http://www.w3.org/2000/svg">
<g id="fi-rr-heart" clip-path="url(#clip0_0_69)">
<path id="Vector" d="M14.5833 1.5975C13.645 1.6121 12.727 1.87404 11.9223 2.35689C11.1176 2.83974 10.4545 3.52639 10 4.3475C9.54553 3.52639 8.88244 2.83974 8.0777 2.35689C7.27295 1.87404 6.35504 1.6121 5.41667 1.5975C3.92078 1.66249 2.51142 2.31688 1.49649 3.41769C0.48155 4.51851 -0.0564588 5.97627 2.14257e-10 7.4725C2.14257e-10 11.2617 3.98833 15.4 7.33333 18.2058C8.08018 18.8334 9.02446 19.1775 10 19.1775C10.9755 19.1775 11.9198 18.8334 12.6667 18.2058C16.0117 15.4 20 11.2617 20 7.4725C20.0565 5.97627 19.5185 4.51851 18.5035 3.41769C17.4886 2.31688 16.0792 1.66249 14.5833 1.5975ZM11.5958 16.9308C11.1492 17.307 10.584 17.5133 10 17.5133C9.41604 17.5133 8.85085 17.307 8.40417 16.9308C4.1225 13.3383 1.66667 9.89167 1.66667 7.4725C1.6097 6.4181 1.97197 5.38394 2.67447 4.59558C3.37697 3.80722 4.36269 3.32863 5.41667 3.26417C6.47064 3.32863 7.45637 3.80722 8.15886 4.59558C8.86136 5.38394 9.22363 6.4181 9.16667 7.4725C9.16667 7.69351 9.25446 7.90548 9.41074 8.06176C9.56702 8.21804 9.77899 8.30583 10 8.30583C10.221 8.30583 10.433 8.21804 10.5893 8.06176C10.7455 7.90548 10.8333 7.69351 10.8333 7.4725C10.7764 6.4181 11.1386 5.38394 11.8411 4.59558C12.5436 3.80722 13.5294 3.32863 14.5833 3.26417C15.6373 3.32863 16.623 3.80722 17.3255 4.59558C18.028 5.38394 18.3903 6.4181 18.3333 7.4725C18.3333 9.89167 15.8775 13.3383 11.5958 16.9275V16.9308Z" fill="var(--fill-0, #F36437)"/>
</g>
<defs>
<clipPath id="clip0_0_69">
<rect width="20" height="20" fill="white"/>
</clipPath>
</defs>
</svg>
