<svg preserveAspectRatio="none" width="100%" height="100%" overflow="visible" style="display: block;" viewBox="0 0 14 14" fill="none" xmlns="http://www.w3.org/2000/svg">
<g id="fi-rr-clock" clip-path="url(#clip0_0_49)">
<path id="Vector" d="M7 0C5.61553 0 4.26215 0.410543 3.11101 1.17971C1.95986 1.94888 1.06265 3.04213 0.532841 4.32122C0.0030276 5.6003 -0.135596 7.00776 0.134501 8.36563C0.404597 9.7235 1.07128 10.9708 2.05025 11.9497C3.02922 12.9287 4.2765 13.5954 5.63437 13.8655C6.99223 14.1356 8.3997 13.997 9.67878 13.4672C10.9579 12.9373 12.0511 12.0401 12.8203 10.889C13.5895 9.73785 14 8.38447 14 7C13.998 5.1441 13.2598 3.36479 11.9475 2.05247C10.6352 0.74015 8.8559 0.0020073 7 0V0ZM7 12.8333C5.84627 12.8333 4.71846 12.4912 3.75917 11.8502C2.79988 11.2093 2.05221 10.2982 1.6107 9.23232C1.16919 8.16642 1.05367 6.99353 1.27875 5.86197C1.50383 4.73042 2.0594 3.69102 2.87521 2.87521C3.69101 2.0594 4.73042 1.50383 5.86197 1.27875C6.99353 1.05367 8.16642 1.16919 9.23232 1.6107C10.2982 2.05221 11.2093 2.79989 11.8502 3.75917C12.4912 4.71846 12.8333 5.84628 12.8333 7C12.8316 8.54657 12.2165 10.0293 11.1229 11.1229C10.0293 12.2165 8.54657 12.8316 7 12.8333V12.8333Z" fill="var(--fill-0, #E96426)"/>
<path id="Vector_2" d="M7 3.5C6.84529 3.5 6.69692 3.56146 6.58752 3.67085C6.47813 3.78025 6.41667 3.92862 6.41667 4.08333V6.60625L4.45025 7.83825C4.31875 7.9204 4.22526 8.05143 4.19037 8.2025C4.15547 8.35358 4.18202 8.51233 4.26417 8.64383C4.34632 8.77534 4.47734 8.86882 4.62842 8.90372C4.7795 8.93861 4.93825 8.91207 5.06975 8.82992L7.30975 7.42992C7.39438 7.37689 7.46398 7.30302 7.51189 7.21539C7.55979 7.12775 7.58439 7.02928 7.58333 6.92942V4.08333C7.58333 3.92862 7.52188 3.78025 7.41248 3.67085C7.30308 3.56146 7.15471 3.5 7 3.5Z" fill="var(--fill-0, #E96426)"/>
</g>
<defs>
<clipPath id="clip0_0_49">
<rect width="14" height="14" fill="white"/>
</clipPath>
</defs>
</svg>
