<svg width="20" height="20" viewBox="0 0 20 20" fill="none" xmlns="http://www.w3.org/2000/svg">
<g clip-path="url(#clip0_48_5716)">
<path d="M14.5835 1.59741C13.6451 1.61201 12.7272 1.87396 11.9224 2.3568C11.1177 2.83965 10.4546 3.5263 10.0001 4.34741C9.54566 3.5263 8.88257 2.83965 8.07783 2.3568C7.27308 1.87396 6.35517 1.61201 5.4168 1.59741C3.92091 1.6624 2.51155 2.31679 1.49661 3.41761C0.481678 4.51842 -0.0563308 5.97618 0.000128003 7.47241C0.000128003 11.2616 3.98846 15.3999 7.33346 18.2057C8.08031 18.8334 9.02459 19.1774 10.0001 19.1774C10.9757 19.1774 11.9199 18.8334 12.6668 18.2057C16.0118 15.3999 20.0001 11.2616 20.0001 7.47241C20.0566 5.97618 19.5186 4.51842 18.5036 3.41761C17.4887 2.31679 16.0793 1.6624 14.5835 1.59741Z" fill="#E0E0E0"/>
</g>
<defs>
<clipPath id="clip0_48_5716">
<rect width="20" height="20" fill="white"/>
</clipPath>
</defs>
</svg>
