<svg width="16" height="16" viewBox="0 0 16 16" fill="none" xmlns="http://www.w3.org/2000/svg">
<g clip-path="url(#clip0_95_608)">
<path fill-rule="evenodd" clip-rule="evenodd" d="M8 16C3.5815 16 0 12.4185 0 8C0 3.5815 3.5815 0 8 0C12.4185 0 16 3.5815 16 8C16 12.4185 12.4185 16 8 16ZM5.25 7.619V8.523H6.132V9.827H5.25V10.6795H6.132V12.5H7.126V10.6795H9.126V9.827H7.126V8.523H8.3805C8.76264 8.52558 9.14317 8.47338 9.5105 8.368C9.8585 8.26467 10.1608 8.1075 10.4175 7.8965C10.6745 7.68617 10.8775 7.4215 11.0265 7.1025C11.1755 6.78417 11.25 6.40967 11.25 5.979C11.25 5.549 11.1797 5.179 11.039 4.869C10.898 4.559 10.7033 4.30283 10.455 4.1005C10.0825 3.797 9.9085 3.7475 9.5605 3.6485C9.18426 3.54561 8.79553 3.49563 8.4055 3.5H6.132V7.619H5.25ZM8.405 7.619H7.126V4.404H8.4055C8.9765 4.404 9.42567 4.52883 9.753 4.7785C10.0803 5.02817 10.244 5.42833 10.244 5.979C10.244 6.53 10.0803 6.94117 9.753 7.2125C9.42567 7.4835 8.9765 7.619 8.4055 7.619H8.405Z" fill="#EC673A"/>
</g>
<defs>
<clipPath id="clip0_95_608">
<rect width="16" height="16" fill="white"/>
</clipPath>
</defs>
</svg>
