<svg width="12" height="12" viewBox="0 0 12 12" fill="none" xmlns="http://www.w3.org/2000/svg">
<path d="M6 0C4.81331 0 3.65328 0.351894 2.66658 1.01118C1.67989 1.67047 0.910851 2.60754 0.456726 3.7039C0.00259972 4.80026 -0.11622 6.00666 0.115291 7.17054C0.346802 8.33443 0.918247 9.40353 1.75736 10.2426C2.59648 11.0818 3.66558 11.6532 4.82946 11.8847C5.99335 12.1162 7.19975 11.9974 8.2961 11.5433C9.39246 11.0892 10.3295 10.3201 10.9888 9.33342C11.6481 8.34673 12 7.18669 12 6C11.9983 4.40923 11.3656 2.88411 10.2407 1.75926C9.1159 0.634414 7.59077 0.00172054 6 0ZM6.5 10.9745V10C6.5 9.86739 6.44732 9.74021 6.35356 9.64645C6.25979 9.55268 6.13261 9.5 6 9.5C5.86739 9.5 5.74022 9.55268 5.64645 9.64645C5.55268 9.74021 5.5 9.86739 5.5 10V10.9745C4.35309 10.8577 3.28159 10.3488 2.46641 9.53359C1.65122 8.71841 1.14228 7.64692 1.0255 6.5H2C2.13261 6.5 2.25979 6.44732 2.35356 6.35355C2.44732 6.25979 2.5 6.13261 2.5 6C2.5 5.86739 2.44732 5.74021 2.35356 5.64645C2.25979 5.55268 2.13261 5.5 2 5.5H1.0255C1.14228 4.35308 1.65122 3.28159 2.46641 2.46641C3.28159 1.65122 4.35309 1.14228 5.5 1.0255V2C5.5 2.13261 5.55268 2.25979 5.64645 2.35355C5.74022 2.44732 5.86739 2.5 6 2.5C6.13261 2.5 6.25979 2.44732 6.35356 2.35355C6.44732 2.25979 6.5 2.13261 6.5 2V1.0255C7.64692 1.14228 8.71841 1.65122 9.5336 2.46641C10.3488 3.28159 10.8577 4.35308 10.9745 5.5H10C9.86739 5.5 9.74022 5.55268 9.64645 5.64645C9.55268 5.74021 9.5 5.86739 9.5 6C9.5 6.13261 9.55268 6.25979 9.64645 6.35355C9.74022 6.44732 9.86739 6.5 10 6.5H10.9745C10.8577 7.64692 10.3488 8.71841 9.5336 9.53359C8.71841 10.3488 7.64692 10.8577 6.5 10.9745ZM8 6C8 6.13261 7.94732 6.25979 7.85356 6.35355C7.75979 6.44732 7.63261 6.5 7.5 6.5H6.5V7.5C6.5 7.63261 6.44732 7.75979 6.35356 7.85355C6.25979 7.94732 6.13261 8 6 8C5.86739 8 5.74022 7.94732 5.64645 7.85355C5.55268 7.75979 5.5 7.63261 5.5 7.5V6.5H4.5C4.36739 6.5 4.24022 6.44732 4.14645 6.35355C4.05268 6.25979 4 6.13261 4 6C4 5.86739 4.05268 5.74021 4.14645 5.64645C4.24022 5.55268 4.36739 5.5 4.5 5.5H5.5V4.5C5.5 4.36739 5.55268 4.24021 5.64645 4.14645C5.74022 4.05268 5.86739 4 6 4C6.13261 4 6.25979 4.05268 6.35356 4.14645C6.44732 4.24021 6.5 4.36739 6.5 4.5V5.5H7.5C7.63261 5.5 7.75979 5.55268 7.85356 5.64645C7.94732 5.74021 8 5.86739 8 6Z" fill="#F36437"/>
<path fill-rule="evenodd" clip-rule="evenodd" d="M6.5 10.9745V10C6.5 9.86739 6.44732 9.74021 6.35356 9.64645C6.25979 9.55268 6.13261 9.5 6 9.5C5.86739 9.5 5.74022 9.55268 5.64645 9.64645C5.55268 9.74021 5.5 9.86739 5.5 10V10.9745C4.35309 10.8577 3.28159 10.3488 2.46641 9.53359C1.65122 8.71841 1.14228 7.64692 1.0255 6.5H2C2.13261 6.5 2.25979 6.44732 2.35356 6.35355C2.44732 6.25979 2.5 6.13261 2.5 6C2.5 5.86739 2.44732 5.74021 2.35356 5.64645C2.25979 5.55268 2.13261 5.5 2 5.5H1.0255C1.14228 4.35308 1.65122 3.28159 2.46641 2.46641C3.28159 1.65122 4.35309 1.14228 5.5 1.0255V2C5.5 2.13261 5.55268 2.25979 5.64645 2.35355C5.74022 2.44732 5.86739 2.5 6 2.5C6.13261 2.5 6.25979 2.44732 6.35356 2.35355C6.44732 2.25979 6.5 2.13261 6.5 2V1.0255C7.64692 1.14228 8.71841 1.65122 9.5336 2.46641C10.3488 3.28159 10.8577 4.35308 10.9745 5.5H10C9.86739 5.5 9.74022 5.55268 9.64645 5.64645C9.55268 5.74021 9.5 5.86739 9.5 6C9.5 6.13261 9.55268 6.25979 9.64645 6.35355C9.74022 6.44732 9.86739 6.5 10 6.5H10.9745C10.8577 7.64692 10.3488 8.71841 9.5336 9.53359C8.71841 10.3488 7.64692 10.8577 6.5 10.9745ZM7.85356 6.35355C7.94732 6.25979 8 6.13261 8 6C8 5.86739 7.94732 5.74021 7.85356 5.64645C7.75979 5.55268 7.63261 5.5 7.5 5.5H6.5V4.5C6.5 4.36739 6.44732 4.24021 6.35356 4.14645C6.25979 4.05268 6.13261 4 6 4C5.86739 4 5.74022 4.05268 5.64645 4.14645C5.55268 4.24021 5.5 4.36739 5.5 4.5V5.5H4.5C4.36739 5.5 4.24022 5.55268 4.14645 5.64645C4.05268 5.74021 4 5.86739 4 6C4 6.13261 4.05268 6.25979 4.14645 6.35355C4.24022 6.44732 4.36739 6.5 4.5 6.5H5.5V7.5C5.5 7.63261 5.55268 7.75979 5.64645 7.85355C5.74022 7.94732 5.86739 8 6 8C6.13261 8 6.25979 7.94732 6.35356 7.85355C6.44732 7.75979 6.5 7.63261 6.5 7.5V6.5H7.5C7.63261 6.5 7.75979 6.44732 7.85356 6.35355Z" fill="white"/>
</svg>
